<svg viewBox="0 0 512 512" xmlns="http://www.w3.org/2000/svg">
  <defs>
    <linearGradient id="bgGrad" x1="0" y1="0" x2="0" y2="1">
      <stop offset="0%" stop-color="#fdf4d8"/>
      <stop offset="100%" stop-color="#e0b656"/>
    </linearGradient>
    <radialGradient id="vignette" cx="50%" cy="50%" r="70%">
      <stop offset="40%" stop-color="rgba(0,0,0,0)"/>
      <stop offset="100%" stop-color="rgba(60,40,20,0.18)"/>
    </radialGradient>
    <radialGradient id="liaSphere" cx="32%" cy="26%" r="72%">
      <stop offset="0%" stop-color="#fce078"/>
      <stop offset="45%" stop-color="#d4a73c"/>
      <stop offset="100%" stop-color="#6b5018"/>
    </radialGradient>
    <linearGradient id="liaBand" x1="0" y1="0" x2="0" y2="1">
      <stop offset="0%" stop-color="#b8862a"/>
      <stop offset="50%" stop-color="#8a6418"/>
      <stop offset="100%" stop-color="#b8862a"/>
    </linearGradient>
  </defs>
  <rect width="512" height="512" fill="url(#bgGrad)"/>
  <rect width="512" height="512" fill="url(#vignette)"/>
  <ellipse cx="256" cy="410" rx="115" ry="14" fill="rgba(60,40,20,0.22)"/>
  <g transform="translate(131, 130) scale(2.5)">
    <circle cx="50" cy="6" r="3" fill="url(#liaSphere)" stroke="#5c4313" stroke-width="0.7"/>
    <line x1="50" y1="9" x2="50" y2="14" stroke="#5c4313" stroke-width="2" stroke-linecap="round"/>
    <circle cx="50" cy="58" r="40" fill="url(#liaSphere)" stroke="#5c4313" stroke-width="1.2"/>
    <g fill="#3d2817" opacity="0.72">
      <path d="M 19,42 Q 19,28 29,24 L 29,42 Z"/>
      <path d="M 32,42 Q 36,21 47,19 L 47,42 Z"/>
      <path d="M 53,42 Q 64,21 68,42 Z"/>
      <path d="M 71,42 Q 81,28 81,42 Z"/>
    </g>
    <g fill="#d4a73c">
      <circle cx="24" cy="33" r="1"/>
      <circle cx="40" cy="25" r="1.2"/>
      <circle cx="60" cy="25" r="1.2"/>
      <circle cx="76" cy="33" r="1"/>
    </g>
    <rect x="7" y="50" width="86" height="9" fill="url(#liaBand)" stroke="#5c4313" stroke-width="0.8"/>
    <g fill="#3d2817">
      <path d="M 14,54.5 L 16,52.5 L 18,54.5 L 16,56.5 Z"/>
      <rect x="22" y="52.5" width="1" height="4"/>
      <path d="M 28,52.5 L 31,56.5 L 25,56.5 Z"/>
      <rect x="35" y="52.5" width="4" height="1"/>
      <rect x="35" y="55.5" width="4" height="1"/>
      <path d="M 50,51 L 53.5,54.5 L 50,58 L 46.5,54.5 Z"/>
      <rect x="61" y="52.5" width="4" height="1"/>
      <rect x="61" y="55.5" width="4" height="1"/>
      <path d="M 72,52.5 L 75,56.5 L 69,56.5 Z"/>
      <rect x="77" y="52.5" width="1" height="4"/>
      <path d="M 82,54.5 L 84,52.5 L 86,54.5 L 84,56.5 Z"/>
    </g>
    <g fill="#3d2817" opacity="0.72">
      <path d="M 19,68 Q 19,82 29,86 L 29,68 Z"/>
      <path d="M 32,68 Q 36,89 47,91 L 47,68 Z"/>
      <path d="M 53,68 Q 64,89 68,68 Z"/>
      <path d="M 71,68 Q 81,82 81,68 Z"/>
    </g>
    <g fill="#d4a73c">
      <circle cx="24" cy="77" r="1"/>
      <circle cx="40" cy="85" r="1.2"/>
      <circle cx="60" cy="85" r="1.2"/>
      <circle cx="76" cy="77" r="1"/>
    </g>
    <ellipse cx="37" cy="40" rx="13" ry="8" fill="#fce078" opacity="0.4"/>
  </g>
</svg>
